<?xml version="1.0" encoding="UTF-8" standalone="no"?>
<svg
   version="1.0"
   width="512.000000pt"
   height="512.000000pt"
   viewBox="0 0 512.000000 512.000000"
   preserveAspectRatio="xMidYMid meet"
   id="svg1"
   sodipodi:docname="favicon.svg"
   inkscape:version="1.3 (0e150ed6c4, 2023-07-21)"
   xmlns:inkscape="http://www.inkscape.org/namespaces/inkscape"
   xmlns:sodipodi="http://sodipodi.sourceforge.net/DTD/sodipodi-0.dtd"
   xmlns="http://www.w3.org/2000/svg"
   xmlns:svg="http://www.w3.org/2000/svg">
  <defs
     id="defs1" />
  <sodipodi:namedview
     id="namedview1"
     pagecolor="#ffffff"
     bordercolor="#000000"
     borderopacity="0.25"
     inkscape:showpageshadow="2"
     inkscape:pageopacity="0.0"
     inkscape:pagecheckerboard="0"
     inkscape:deskcolor="#d1d1d1"
     inkscape:document-units="pt"
     inkscape:zoom="1.7885742"
     inkscape:cx="341.33333"
     inkscape:cy="341.33333"
     inkscape:window-width="2560"
     inkscape:window-height="1417"
     inkscape:window-x="-8"
     inkscape:window-y="-8"
     inkscape:window-maximized="1"
     inkscape:current-layer="svg1" />
  <g
     transform="translate(0.000000,512.000000) scale(0.100000,-0.100000)"
     fill="#000000"
     stroke="none"
     id="g1">
    <path
       d="M2330 4821 c0 -5 -20 -12 -45 -15 -24 -4 -47 -11 -50 -16 -3 -5 -27 -12 -53 -16 -26 -3 -51 -10 -57 -14 -5 -5 -27 -11 -48 -15 -20 -4 -40 -11 -42 -16 -3 -4 -27 -11 -53 -15 -26 -3 -51 -10 -57 -14 -5 -5 -28 -11 -50 -15 -22 -4 -44 -11 -50 -15 -5 -5 -39 -14 -75 -20 -36 -6 -69 -15 -75 -20 -5 -4 -26 -11 -45 -15 -19 -4 -39 -11 -45 -15 -5 -4 -31 -11 -57 -14 -26 -4 -50 -11 -53 -15 -2 -5 -22 -12 -42 -16 -21 -4 -42 -10 -48 -15 -5 -4 -31 -11 -57 -14 -26 -4 -50 -11 -53 -16 -3 -4 -24 -11 -48 -15 -23 -4 -46 -11 -52 -15 -5 -4 -30 -11 -55 -15 -24 -4 -51 -11 -60 -15 -8 -4 -26 -13 -40 -19 -46 -22 -68 -37 -117 -82 -50 -47 -66 -67 -84 -109 -6 -14 -15 -33 -20 -42 -12 -23 -12 -2908 0 -2908 5 0 12 -11 15 -25 5 -21 68 -95 81 -95 3 0 34 -20 69 -44 66 -45 132 -66 207 -66 67 0 179 27 559 136 701 202 760 222 868 307 114 90 127 98 147 95 16 -2 21 -13 27 -53 3 -27 7 -315 7 -640 1 -447 4 -596 14 -614 8 -16 30 -30 63 -42 29 -9 63 -24 77 -34 42 -27 121 -29 232 -6 276 57 388 120 426 240 8 24 14 211 19 571 5 370 11 547 19 573 17 54 68 107 127 133 28 12 139 50 246 83 107 33 221 72 253 86 32 15 66 24 75 22 15 -4 18 9 24 92 8 122 8 240 0 362 l-7 97 -37 11 c-26 7 -45 23 -63 50 -14 21 -40 46 -58 55 -34 17 -114 22 -123 7 -3 -5 -23 -12 -43 -16 -21 -4 -42 -10 -48 -15 -5 -4 -31 -11 -57 -14 -26 -4 -50 -11 -52 -15 -3 -4 -38 -14 -78 -21 -40 -7 -77 -17 -83 -22 -5 -4 -21 -8 -36 -8 -44 0 -54 41 -53 215 1 229 21 276 138 331 39 18 163 61 276 95 113 34 232 74 265 89 67 31 117 77 139 131 48 115 18 404 -49 479 -8 8 -20 33 -27 55 -17 49 -56 73 -125 74 -28 1 -54 -3 -57 -8 -3 -4 -28 -11 -55 -15 -28 -4 -53 -10 -55 -15 -3 -5 -23 -12 -43 -16 -21 -4 -42 -10 -48 -15 -5 -4 -31 -11 -57 -14 -26 -4 -50 -11 -53 -16 -3 -4 -24 -11 -48 -15 -23 -4 -46 -11 -52 -15 -5 -4 -30 -11 -55 -15 -25 -4 -49 -11 -55 -15 -5 -4 -59 -20 -120 -35 -60 -16 -115 -32 -120 -36 -6 -5 -31 -11 -55 -15 -25 -4 -49 -10 -55 -14 -5 -5 -27 -11 -48 -15 -20 -4 -40 -11 -43 -16 -2 -5 -27 -11 -55 -15 -27 -4 -52 -10 -54 -15 -3 -4 -26 -11 -50 -15 -25 -3 -48 -10 -51 -15 -2 -5 -27 -11 -54 -15 -28 -4 -50 -10 -50 -15 0 -5 -12 -9 -26 -9 -32 0 -104 -68 -104 -99 0 -25 -42 -71 -64 -71 -25 0 -66 22 -66 36 0 8 -11 16 -25 20 -14 3 -25 10 -25 15 0 12 -97 12 -104 0 -3 -5 -26 -12 -51 -15 -24 -4 -47 -11 -50 -15 -2 -5 -27 -11 -55 -15 -27 -4 -50 -11 -50 -15 0 -5 -20 -12 -45 -15 -24 -4 -47 -11 -50 -16 -3 -4 -28 -11 -55 -15 -28 -4 -50 -10 -50 -15 0 -4 -20 -11 -45 -14 -24 -4 -47 -11 -50 -15 -2 -5 -27 -11 -54 -15 -28 -4 -53 -10 -55 -15 -3 -5 -23 -12 -43 -16 -21 -4 -42 -10 -48 -13 -5 -4 -36 -12 -69 -18 l-58 -11 -15 35 c-12 29 -14 78 -11 256 4 231 11 269 56 320 40 44 138 69 183 46 17 -10 19 -23 20 -128 1 -149 7 -160 118 -219 101 -54 151 -61 277 -39 255 44 433 136 464 239 14 48 5 645 -11 756 -11 74 -43 141 -93 194 -20 21 -36 42 -36 47 0 12 -59 57 -107 81 -39 20 -173 28 -173 10z m143 -134 c14 -9 35 -38 46 -63 20 -44 21 -65 21 -424 0 -290 -3 -380 -12 -388 -19 -15 -465 -144 -486 -140 -16 3 -17 25 -20 271 -1 179 -6 267 -13 267 -6 0 -97 -25 -202 -56 -106 -31 -232 -68 -282 -82 -49 -14 -96 -30 -102 -35 -10 -7 -13 -248 -13 -1144 l0 -1135 23 4 c30 7 468 135 531 156 l51 17 3 428 c2 369 0 427 -12 427 -8 0 -85 -20 -171 -45 -86 -25 -160 -43 -166 -40 -5 4 -9 90 -9 200 0 175 2 195 18 204 28 15 815 241 840 241 l22 0 0 -738 c0 -811 2 -787 -61 -877 -65 -95 -108 -116 -429 -209 -205 -59 -612 -178 -780 -228 -206 -61 -288 -54 -345 29 l-25 38 0 1381 0 1381 21 48 c26 58 88 128 143 160 23 13 80 35 128 49 49 14 127 38 176 52 48 14 173 50 277 81 105 30 210 61 235 68 292 85 429 124 450 127 42 6 116 -7 143 -25z m1767 -856 c6 -12 10 -95 10 -199 0 -157 -2 -183 -17 -201 -13 -15 -90 -42 -293 -101 -151 -43 -333 -96 -405 -117 l-130 -38 -3 -443 c-1 -243 1 -442 5 -442 5 0 160 45 347 99 186 55 345 97 352 94 11 -4 14 -44 14 -199 0 -175 -2 -194 -18 -203 -16 -9 -176 -56 -549 -164 l-148 -42 -5 -682 c-3 -435 -9 -686 -15 -692 -15 -14 -456 -142 -480 -139 -20 3 -20 11 -23 1539 -2 1218 1 1538 10 1551 7 8 72 32 143 53 270 78 942 273 1085 316 115 34 107 33 120 10z m-2369 -1351 c18 -10 19 -24 19 -240 l0 -230 -27 -6 c-16 -4 -30 -10 -33 -14 -3 -4 -42 -14 -87 -22 l-82 -14 -13 30 c-9 22 -13 86 -13 211 0 207 11 245 75 277 39 20 130 24 161 8z"
       id="path1" />
  </g>
  <path
     style="fill:#ffffff;stroke-width:0.559105"
     d="m 134.89582,513.83493 c -5.17409,-1.46458 -8.66459,-4.31967 -12.65813,-10.35381 l -2.03021,-3.06761 V 316.65575 132.89799 l 1.53754,-3.58692 c 3.71384,-8.66404 10.90056,-17.82848 17.59863,-22.44161 4.40135,-3.03133 11.97467,-6.10876 23.4935,-9.546604 31.60689,-9.433222 130.36407,-38.033828 142.15439,-41.168668 5.9504,-1.582107 7.25104,-1.745712 11.49932,-1.446475 7.03608,0.495601 12.03777,2.196379 14.71617,5.004099 3.48714,3.6555 5.81955,9.234415 6.47507,15.487751 0.68266,6.512301 0.72206,84.590207 0.0468,92.744917 -0.31477,3.80117 -0.74048,5.97297 -1.23362,6.29333 -3.53973,2.29953 -60.81323,18.70485 -63.78107,18.26933 -0.77098,-0.11314 -1.36669,-0.76913 -1.68229,-1.85249 -0.26874,-0.92252 -0.73096,-14.76036 -1.02716,-30.75075 -0.49117,-26.51575 -1.02059,-37.87104 -1.80209,-38.65255 -0.40347,-0.40347 -7.16419,1.43902 -38.4107,10.46797 -30.25928,8.74369 -39.05997,11.48974 -40.17469,12.53558 -1.39797,1.31159 -1.70066,30.92862 -1.72973,169.249 l -0.0284,135.14955 1.81709,-0.34768 c 3.85285,-0.73719 62.77491,-18.01306 77.08983,-22.60262 l 2.03004,-0.65087 0.42001,-38.92417 c 0.41771,-38.71063 0.14455,-71.82662 -0.6133,-74.35228 -0.35636,-1.18766 -0.63113,-1.29002 -2.69094,-1.00243 -1.26174,0.17616 -7.326,1.7228 -13.47615,3.43697 -17.41606,4.8542 -29.27604,7.81763 -29.67808,7.41559 -1.36753,-1.36753 -1.55477,-45.98845 -0.21333,-50.8391 0.75862,-2.74317 -0.91194,-2.16085 42.75081,-14.90202 39.01372,-11.38453 69.18295,-19.66316 71.6571,-19.66316 h 1.36706 l -0.21231,96.0262 c -0.2282,103.21423 -0.22621,103.14271 -3.08135,110.65683 -1.53872,4.04957 -6.44209,11.00977 -10.85883,15.41381 -7.03674,7.01648 -16.0645,10.4641 -63.3445,24.19069 -14.45286,4.19604 -42.56453,12.40298 -62.47039,18.23765 -19.90585,5.83468 -38.90143,11.22945 -42.21239,11.9884 -7.70016,1.76503 -17.16264,2.25486 -21.24368,1.09967 z"
     id="path2"
     transform="scale(0.75)" />
  <path
     style="fill:#ffffff;stroke-width:0.559105"
     d="m 386.34182,632.21127 c -1.26519,-4.33384 -1.72921,-79.18658 -1.50162,-242.23584 0.12597,-90.25345 0.41682,-164.90682 0.64632,-165.89636 0.38802,-1.67302 0.81485,-1.95159 6.08728,-3.97289 7.02655,-2.69378 7.52918,-2.84423 71.30529,-21.34416 28.71924,-8.33076 61.98557,-18.02588 73.92519,-21.54471 26.89232,-7.92567 26.02138,-7.72171 27.34044,-6.40264 1.69147,1.69147 1.9469,5.39296 1.94779,28.22655 9.5e-4,24.26544 -0.0826,24.8755 -3.70791,27.0802 -2.37456,1.44405 -18.568,6.79506 -35.42855,11.70712 -24.15368,7.03679 -64.20851,18.64012 -68.40415,19.81574 -3.29809,0.92412 -4.20965,1.42047 -4.62761,2.51979 -0.57814,1.52065 -0.44049,116.62969 0.14018,117.21006 0.19311,0.19302 14.03095,-3.59362 30.75075,-8.41475 45.5119,-13.12331 62.15344,-17.58413 62.88188,-16.85569 0.9518,0.95179 1.41632,12.13358 1.2492,30.06973 -0.16526,17.73648 -0.28965,20.03301 -1.15668,21.3555 -0.75859,1.15708 -2.2903,1.90817 -6.98881,3.42706 -6.63278,2.14418 -42.20456,12.62574 -69.15387,20.37684 -13.75129,3.95511 -17.36791,5.18971 -17.67064,6.03217 -0.20934,0.58259 -0.55183,28.86073 -0.76109,62.84031 -0.37967,61.65244 -1.11801,109.55089 -1.79031,116.14191 l -0.35521,3.48235 -9.30844,3.06047 c -14.53631,4.7793 -41.08491,12.28965 -53.29603,15.07696 -1.36824,0.31231 -1.56785,0.14727 -2.1234,-1.75572 z"
     id="path3"
     transform="scale(0.75)" />
</svg>
