<?xml version="1.0" standalone="no"?>
<!DOCTYPE svg PUBLIC "-//W3C//DTD SVG 20010904//EN"
 "http://www.w3.org/TR/2001/REC-SVG-20010904/DTD/svg10.dtd">
<svg version="1.0" xmlns="http://www.w3.org/2000/svg"
 width="512.000000pt" height="512.000000pt" viewBox="0 0 512.000000 512.000000"
 preserveAspectRatio="xMidYMid meet">

<g transform="translate(0.000000,512.000000) scale(0.100000,-0.100000)"
fill="#000000" stroke="none">
<path d="M2330 4821 c0 -5 -20 -12 -45 -15 -24 -4 -47 -11 -50 -16 -3 -5 -27
-12 -53 -16 -26 -3 -51 -10 -57 -14 -5 -5 -27 -11 -48 -15 -20 -4 -40 -11 -42
-16 -3 -4 -27 -11 -53 -15 -26 -3 -51 -10 -57 -14 -5 -5 -28 -11 -50 -15 -22
-4 -44 -11 -50 -15 -5 -5 -39 -14 -75 -20 -36 -6 -69 -15 -75 -20 -5 -4 -26
-11 -45 -15 -19 -4 -39 -11 -45 -15 -5 -4 -31 -11 -57 -14 -26 -4 -50 -11 -53
-15 -2 -5 -22 -12 -42 -16 -21 -4 -42 -10 -48 -15 -5 -4 -31 -11 -57 -14 -26
-4 -50 -11 -53 -16 -3 -4 -24 -11 -48 -15 -23 -4 -46 -11 -52 -15 -5 -4 -30
-11 -55 -15 -24 -4 -51 -11 -60 -15 -8 -4 -26 -13 -40 -19 -46 -22 -68 -37
-117 -82 -50 -47 -66 -67 -84 -109 -6 -14 -15 -33 -20 -42 -12 -23 -12 -2908
0 -2908 5 0 12 -11 15 -25 5 -21 68 -95 81 -95 3 0 34 -20 69 -44 66 -45 132
-66 207 -66 67 0 179 27 559 136 701 202 760 222 868 307 114 90 127 98 147
95 16 -2 21 -13 27 -53 3 -27 7 -315 7 -640 1 -447 4 -596 14 -614 8 -16 30
-30 63 -42 29 -9 63 -24 77 -34 42 -27 121 -29 232 -6 276 57 388 120 426 240
8 24 14 211 19 571 5 370 11 547 19 573 17 54 68 107 127 133 28 12 139 50
246 83 107 33 221 72 253 86 32 15 66 24 75 22 15 -4 18 9 24 92 8 122 8 240
0 362 l-7 97 -37 11 c-26 7 -45 23 -63 50 -14 21 -40 46 -58 55 -34 17 -114
22 -123 7 -3 -5 -23 -12 -43 -16 -21 -4 -42 -10 -48 -15 -5 -4 -31 -11 -57
-14 -26 -4 -50 -11 -52 -15 -3 -4 -38 -14 -78 -21 -40 -7 -77 -17 -83 -22 -5
-4 -21 -8 -36 -8 -44 0 -54 41 -53 215 1 229 21 276 138 331 39 18 163 61 276
95 113 34 232 74 265 89 67 31 117 77 139 131 48 115 18 404 -49 479 -8 8 -20
33 -27 55 -17 49 -56 73 -125 74 -28 1 -54 -3 -57 -8 -3 -4 -28 -11 -55 -15
-28 -4 -53 -10 -55 -15 -3 -5 -23 -12 -43 -16 -21 -4 -42 -10 -48 -15 -5 -4
-31 -11 -57 -14 -26 -4 -50 -11 -53 -16 -3 -4 -24 -11 -48 -15 -23 -4 -46 -11
-52 -15 -5 -4 -30 -11 -55 -15 -25 -4 -49 -11 -55 -15 -5 -4 -59 -20 -120 -35
-60 -16 -115 -32 -120 -36 -6 -5 -31 -11 -55 -15 -25 -4 -49 -10 -55 -14 -5
-5 -27 -11 -48 -15 -20 -4 -40 -11 -43 -16 -2 -5 -27 -11 -55 -15 -27 -4 -52
-10 -54 -15 -3 -4 -26 -11 -50 -15 -25 -3 -48 -10 -51 -15 -2 -5 -27 -11 -54
-15 -28 -4 -50 -10 -50 -15 0 -5 -12 -9 -26 -9 -32 0 -104 -68 -104 -99 0 -25
-42 -71 -64 -71 -25 0 -66 22 -66 36 0 8 -11 16 -25 20 -14 3 -25 10 -25 15 0
12 -97 12 -104 0 -3 -5 -26 -12 -51 -15 -24 -4 -47 -11 -50 -15 -2 -5 -27 -11
-55 -15 -27 -4 -50 -11 -50 -15 0 -5 -20 -12 -45 -15 -24 -4 -47 -11 -50 -16
-3 -4 -28 -11 -55 -15 -28 -4 -50 -10 -50 -15 0 -4 -20 -11 -45 -14 -24 -4
-47 -11 -50 -15 -2 -5 -27 -11 -54 -15 -28 -4 -53 -10 -55 -15 -3 -5 -23 -12
-43 -16 -21 -4 -42 -10 -48 -13 -5 -4 -36 -12 -69 -18 l-58 -11 -15 35 c-12
29 -14 78 -11 256 4 231 11 269 56 320 40 44 138 69 183 46 17 -10 19 -23 20
-128 1 -149 7 -160 118 -219 101 -54 151 -61 277 -39 255 44 433 136 464 239
14 48 5 645 -11 756 -11 74 -43 141 -93 194 -20 21 -36 42 -36 47 0 12 -59 57
-107 81 -39 20 -173 28 -173 10z m143 -134 c14 -9 35 -38 46 -63 20 -44 21
-65 21 -424 0 -290 -3 -380 -12 -388 -19 -15 -465 -144 -486 -140 -16 3 -17
25 -20 271 -1 179 -6 267 -13 267 -6 0 -97 -25 -202 -56 -106 -31 -232 -68
-282 -82 -49 -14 -96 -30 -102 -35 -10 -7 -13 -248 -13 -1144 l0 -1135 23 4
c30 7 468 135 531 156 l51 17 3 428 c2 369 0 427 -12 427 -8 0 -85 -20 -171
-45 -86 -25 -160 -43 -166 -40 -5 4 -9 90 -9 200 0 175 2 195 18 204 28 15
815 241 840 241 l22 0 0 -738 c0 -811 2 -787 -61 -877 -65 -95 -108 -116 -429
-209 -205 -59 -612 -178 -780 -228 -206 -61 -288 -54 -345 29 l-25 38 0 1381
0 1381 21 48 c26 58 88 128 143 160 23 13 80 35 128 49 49 14 127 38 176 52
48 14 173 50 277 81 105 30 210 61 235 68 292 85 429 124 450 127 42 6 116 -7
143 -25z m1767 -856 c6 -12 10 -95 10 -199 0 -157 -2 -183 -17 -201 -13 -15
-90 -42 -293 -101 -151 -43 -333 -96 -405 -117 l-130 -38 -3 -443 c-1 -243 1
-442 5 -442 5 0 160 45 347 99 186 55 345 97 352 94 11 -4 14 -44 14 -199 0
-175 -2 -194 -18 -203 -16 -9 -176 -56 -549 -164 l-148 -42 -5 -682 c-3 -435
-9 -686 -15 -692 -15 -14 -456 -142 -480 -139 -20 3 -20 11 -23 1539 -2 1218
1 1538 10 1551 7 8 72 32 143 53 270 78 942 273 1085 316 115 34 107 33 120
10z m-2369 -1351 c18 -10 19 -24 19 -240 l0 -230 -27 -6 c-16 -4 -30 -10 -33
-14 -3 -4 -42 -14 -87 -22 l-82 -14 -13 30 c-9 22 -13 86 -13 211 0 207 11
245 75 277 39 20 130 24 161 8z"/>
</g>
</svg>
